HIERARCHY
ROOT joint_0
{
	OFFSET 0.000000 0.000000 0.000000
	CHANNELS 6 Xposition Yposition Zposition Zrotation Yrotation Xrotation 
	JOINT joint_1
	{
		OFFSET 0.511002 1.944000 108.288940
		CHANNELS 3 Zrotation Yrotation Xrotation
		JOINT joint_2
		{
			OFFSET -9.074005 1.512993 98.440063
			CHANNELS 3 Zrotation Yrotation Xrotation
			JOINT joint_3
			{
				OFFSET -8.590996 1.815002 98.366943
				CHANNELS 3 Zrotation Yrotation Xrotation
				JOINT joint_4
				{
					OFFSET 2.489998 3.531998 136.462036
					CHANNELS 3 Zrotation Yrotation Xrotation
					JOINT joint_5
					{
						OFFSET 22.708000 2.955002 80.357056
						CHANNELS 3 Zrotation Yrotation Xrotation
						End Site
						{
							OFFSET 0.000000 0.000000 0.000000
						}
					}
				}
				JOINT joint_6
				{
					OFFSET 2.860001 -27.684998 77.234009
					CHANNELS 3 Zrotation Yrotation Xrotation
					JOINT joint_7
					{
						OFFSET 5.449997 -131.244003 -18.851929
						CHANNELS 3 Zrotation Yrotation Xrotation
						JOINT joint_8
						{
							OFFSET 35.757000 -24.661995 -264.074097
							CHANNELS 3 Zrotation Yrotation Xrotation
							JOINT joint_9
							{
								OFFSET 49.392001 -1.747002 -239.960938
								CHANNELS 3 Zrotation Yrotation Xrotation
								End Site
								{
									OFFSET 0.000000 0.000000 0.000000
								}
							}
						}
					}
				}
				JOINT joint_10
				{
					OFFSET -0.127998 31.625000 75.753052
					CHANNELS 3 Zrotation Yrotation Xrotation
					JOINT joint_11
					{
						OFFSET -5.618004 131.132996 -19.557007
						CHANNELS 3 Zrotation Yrotation Xrotation
						JOINT joint_12
						{
							OFFSET 46.488998 30.127991 -261.826050
							CHANNELS 3 Zrotation Yrotation Xrotation
							JOINT joint_13
							{
								OFFSET 66.021003 0.474030 -235.934937
								CHANNELS 3 Zrotation Yrotation Xrotation
								End Site
								{
									OFFSET 0.000000 0.000000 0.000000
								}
							}
						}
					}
				}
			}
		}
	}
	JOINT joint_14
	{
		OFFSET 15.887001 -78.871004 -94.561035
		CHANNELS 3 Zrotation Yrotation Xrotation
		JOINT joint_15
		{
			OFFSET -4.133003 6.714001 -473.615967
			CHANNELS 3 Zrotation Yrotation Xrotation
			JOINT joint_16
			{
				OFFSET -19.541000 5.340000 -399.613007
				CHANNELS 3 Zrotation Yrotation Xrotation
				JOINT joint_17
				{
					OFFSET 164.317001 41.657999 -73.195000
					CHANNELS 3 Zrotation Yrotation Xrotation
					End Site
					{
						OFFSET 0.000000 0.000000 0.000000
					}
				}
			}
		}
	}
	JOINT joint_18
	{
		OFFSET 6.513000 77.960991 -96.406982
		CHANNELS 3 Zrotation Yrotation Xrotation
		JOINT joint_19
		{
			OFFSET -10.660004 -8.518997 -473.485016
			CHANNELS 3 Zrotation Yrotation Xrotation
			JOINT joint_20
			{
				OFFSET -36.967995 -11.098999 -398.260010
				CHANNELS 3 Zrotation Yrotation Xrotation
				JOINT joint_21
				{
					OFFSET 166.067997 30.363998 -74.785000
					CHANNELS 3 Zrotation Yrotation Xrotation
					End Site
					{
						OFFSET 0.000000 0.000000 0.000000
					}
				}
			}
		}
	}
}
MOTION
Frames: 13
Frame Time: 0.016667
-87.196000 98.653000 1059.185060 0.305753 0.885791 0.709121 0.213708 3.686958 1.460490 0.105524 -0.549474 -0.339710 0.129694 0.776468 0.216090 0.235799 -1.960583 -0.571255 0.000000 0.000000 0.000000 2.144631 -0.564815 -1.808433 -0.647653 -0.190015 -2.682339 0.128654 -3.743514 0.551141 0.000000 0.000000 0.000000 -0.672731 -0.152449 -1.403196 0.583828 0.149559 1.228310 0.339711 -1.956811 1.225125 0.000000 0.000000 0.000000 -2.419332 0.741119 -2.919022 -2.454715 0.187439 -0.184643 -2.471577 -2.225915 -0.531773 0.000000 0.000000 0.000000 -1.603858 -1.256962 1.804654 -1.582159 0.533665 -0.691001 -1.565525 -0.203497 -0.667038 0.000000 0.000000 0.000000 
-86.135000 98.572000 1059.135990 0.343577 1.011572 0.717561 0.220479 3.722544 1.466486 0.111589 -0.557440 -0.342648 0.135823 0.786758 0.217781 0.241671 -2.146617 -0.567531 0.000000 0.000000 0.000000 2.117328 -0.544887 -1.801796 -0.651745 -0.174285 -2.706742 0.131178 -3.739682 0.564662 0.000000 0.000000 0.000000 -0.654948 -0.136713 -1.420234 0.588214 0.165284 1.257857 0.334187 -1.950252 1.205318 0.000000 0.000000 0.000000 -2.433896 0.687709 -2.925318 -2.468663 0.158427 -0.171269 -2.485167 -2.264161 -0.528050 0.000000 0.000000 0.000000 -1.616365 -1.307865 1.808396 -1.594431 0.480461 -0.700576 -1.579393 -0.223590 -0.669583 0.000000 0.000000 0.000000 
-84.844000 98.490000 1059.076050 0.387000 1.165797 0.726215 0.227207 3.762807 1.475476 0.117116 -0.565274 -0.346992 0.141546 0.799250 0.219993 0.250999 -2.376370 -0.570283 0.000000 0.000000 0.000000 2.088938 -0.522405 -1.788486 -0.657066 -0.156363 -2.735074 0.132399 -3.735268 0.572011 0.000000 0.000000 0.000000 -0.635184 -0.117257 -1.442070 0.594100 0.185063 1.292001 0.330547 -1.939230 1.192123 0.000000 0.000000 0.000000 -2.449997 0.616701 -2.934354 -2.483772 0.133689 -0.153603 -2.500189 -2.320300 -0.520408 0.000000 0.000000 0.000000 -1.630999 -1.376322 1.813442 -1.609138 0.428313 -0.711656 -1.595588 -0.256656 -0.670795 0.000000 0.000000 0.000000 
-83.337000 98.395000 1059.004030 0.437026 1.348394 0.734374 0.233396 3.807871 1.486202 0.122020 -0.572976 -0.349925 0.146468 0.812538 0.221700 0.265178 -2.651811 -0.584205 0.000000 0.000000 0.000000 2.060779 -0.498092 -1.766981 -0.663393 -0.136819 -2.765659 0.131189 -3.726801 0.567676 0.000000 0.000000 0.000000 -0.616867 -0.094936 -1.469587 0.601649 0.208706 1.332824 0.330098 -1.917875 1.190124 0.000000 0.000000 0.000000 -2.467575 0.525870 -2.945210 -2.499890 0.116936 -0.131191 -2.516580 -2.396910 -0.508164 0.000000 0.000000 0.000000 -1.648462 -1.465244 1.822736 -1.626991 0.381992 -0.727144 -1.614912 -0.305099 -0.670591 0.000000 0.000000 0.000000 
-81.602000 98.298000 1058.918950 0.492106 1.558723 0.742829 0.239484 3.859596 1.500076 0.126290 -0.579527 -0.354521 0.151039 0.824093 0.224263 0.283146 -2.969110 -0.606113 0.000000 0.000000 0.000000 2.032483 -0.470539 -1.739727 -0.670915 -0.114202 -2.799344 0.128711 -3.717315 0.557362 0.000000 0.000000 0.000000 -0.596090 -0.067895 -1.501894 0.610899 0.237351 1.378181 0.331600 -1.892723 1.194933 0.000000 0.000000 0.000000 -2.486417 0.417963 -2.958860 -2.516909 0.104626 -0.104263 -2.534127 -2.491019 -0.491972 0.000000 0.000000 0.000000 -1.667682 -1.570766 1.833528 -1.646857 0.336180 -0.744367 -1.636203 -0.366066 -0.668970 0.000000 0.000000 0.000000 
-79.525000 98.231000 1058.823000 0.551984 1.806367 0.752103 0.246659 3.922430 1.516834 0.131263 -0.589520 -0.359147 0.156112 0.840707 0.226356 0.304204 -3.345767 -0.631366 0.000000 0.000000 0.000000 1.998744 -0.437919 -1.706778 -0.680853 -0.087462 -2.841406 0.126810 -3.717005 0.550184 0.000000 0.000000 0.000000 -0.562965 -0.034372 -1.542304 0.622633 0.271490 1.426885 0.332386 -1.880730 1.197213 0.000000 0.000000 0.000000 -2.507195 0.288540 -2.977879 -2.535363 0.097886 -0.072507 -2.553366 -2.603068 -0.471940 0.000000 0.000000 0.000000 -1.687909 -1.696256 1.840395 -1.668314 0.290235 -0.756825 -1.658496 -0.438372 -0.665709 0.000000 0.000000 0.000000 
-77.137000 98.202000 1058.714970 0.618173 2.091364 0.760327 0.252033 4.001347 1.541885 0.133404 -0.603975 -0.365606 0.158495 0.860943 0.229921 0.328851 -3.776014 -0.662402 0.000000 0.000000 0.000000 1.957145 -0.403919 -1.670112 -0.692964 -0.060614 -2.892927 0.126311 -3.728876 0.550086 0.000000 0.000000 0.000000 -0.503196 0.004579 -1.595304 0.637197 0.308286 1.481156 0.331059 -1.888754 1.192041 0.000000 0.000000 0.000000 -2.530711 0.138778 -3.000852 -2.556158 0.089795 -0.034903 -2.574867 -2.725899 -0.450128 0.000000 0.000000 0.000000 -1.709597 -1.844557 1.842177 -1.692018 0.245498 -0.758527 -1.681868 -0.519017 -0.661390 0.000000 0.000000 0.000000 
-74.407000 98.203000 1058.594970 0.688754 2.413888 0.769722 0.258091 4.090779 1.569047 0.135946 -0.619492 -0.370620 0.161048 0.882184 0.232659 0.356976 -4.263066 -0.698693 0.000000 0.000000 0.000000 1.913126 -0.364049 -1.627957 -0.707705 -0.028397 -2.953151 0.126362 -3.749021 0.553126 0.000000 0.000000 0.000000 -0.429731 0.051015 -1.658517 0.654687 0.351612 1.540864 0.329020 -1.909577 1.184305 0.000000 0.000000 0.000000 -2.556067 -0.032575 -3.029278 -2.578276 0.086760 0.007575 -2.597908 -2.865358 -0.424725 0.000000 0.000000 0.000000 -1.732113 -2.012836 1.839794 -1.717089 0.200019 -0.755132 -1.706042 -0.608839 -0.655726 0.000000 0.000000 0.000000 
-71.129000 98.239000 1058.462040 0.759680 2.781604 0.784383 0.272192 4.186051 1.589037 0.146852 -0.638479 -0.376450 0.171868 0.908205 0.235173 0.389239 -4.841628 -0.739196 0.000000 0.000000 0.000000 1.880754 -0.303796 -1.580069 -0.727341 0.026064 -3.020711 0.125427 -3.776552 0.552450 0.000000 0.000000 0.000000 -0.368941 0.113270 -1.725585 0.675352 0.413232 1.601291 0.326875 -1.939707 1.176041 0.000000 0.000000 0.000000 -2.581314 -0.231463 -3.067823 -2.599344 0.110329 0.053303 -2.621009 -3.041004 -0.390089 0.000000 0.000000 0.000000 -1.753788 -2.193725 1.835290 -1.741275 0.148203 -0.760257 -1.730191 -0.715836 -0.646865 0.000000 0.000000 0.000000 
-67.288000 98.306000 1058.292970 0.829785 3.196770 0.805693 0.295532 4.284033 1.598293 0.167595 -0.655257 -0.382570 0.192659 0.931178 0.237559 0.425266 -5.519431 -0.782820 0.000000 0.000000 0.000000 1.871810 -0.217874 -1.525851 -0.753685 0.109736 -3.101667 0.124766 -3.815832 0.554586 0.000000 0.000000 0.000000 -0.318805 0.196750 -1.799585 0.699843 0.498510 1.664151 0.323684 -1.981205 1.163901 0.000000 0.000000 0.000000 -2.605486 -0.453560 -3.121268 -2.618723 0.148926 0.107340 -2.643071 -3.249872 -0.346461 0.000000 0.000000 0.000000 -1.776238 -2.377294 1.831220 -1.765405 0.067234 -0.778936 -1.756289 -0.833222 -0.636920 0.000000 0.000000 0.000000 
-62.899000 98.408000 1058.109990 0.900582 3.657165 0.832431 0.326403 4.386965 1.599155 0.196499 -0.669883 -0.386692 0.221428 0.950562 0.238260 0.465089 -6.285866 -0.832236 0.000000 0.000000 0.000000 1.875855 -0.110268 -1.463362 -0.785484 0.217045 -3.191096 0.122856 -3.860346 0.552006 0.000000 0.000000 0.000000 -0.282335 0.297474 -1.884075 0.728875 0.604425 1.735634 0.320442 -2.031717 1.151323 0.000000 0.000000 0.000000 -2.629838 -0.702975 -3.184711 -2.637308 0.213279 0.164842 -2.665318 -3.490741 -0.294680 0.000000 0.000000 0.000000 -1.798249 -2.573689 1.825044 -1.789010 -0.019997 -0.805557 -1.782748 -0.963455 -0.624712 0.000000 0.000000 0.000000 
-57.807000 98.570000 1057.984010 0.969071 4.165800 0.864599 0.366239 4.493629 1.593048 0.234769 -0.687183 -0.389106 0.259042 0.975628 0.236306 0.511173 -7.134041 -0.898765 0.000000 0.000000 0.000000 1.888062 0.020903 -1.390367 -0.821486 0.349437 -3.274208 0.114003 -3.895670 0.516888 0.000000 0.000000 0.000000 -0.285755 0.410834 -1.976741 0.762668 0.730329 1.817987 0.321022 -2.079000 1.151627 0.000000 0.000000 0.000000 -2.656162 -1.001991 -3.249051 -2.655366 0.360027 0.210981 -2.689985 -3.783275 -0.230724 0.000000 0.000000 0.000000 -1.811943 -2.808038 1.809588 -1.806024 -0.050489 -0.836382 -1.801472 -1.126900 -0.602864 0.000000 0.000000 0.000000 
-51.992000 98.774000 1057.932010 1.033694 4.726438 0.899898 0.419012 4.600394 1.580512 0.286534 -0.704312 -0.386140 0.309282 1.002985 0.230021 0.565557 -8.072800 -0.991810 0.000000 0.000000 0.000000 1.890489 0.175742 -1.279465 -0.862279 0.502548 -3.365893 0.095368 -3.900791 0.434943 0.000000 0.000000 0.000000 -0.329144 0.527725 -2.101496 0.802486 0.869567 1.937859 0.325179 -2.100650 1.163684 0.000000 0.000000 0.000000 -2.686534 -1.335095 -3.303938 -2.675625 0.549515 0.241397 -2.719130 -4.111828 -0.159430 0.000000 0.000000 0.000000 -1.813841 -3.083730 1.790109 -1.812739 -0.024519 -0.876340 -1.809315 -1.329200 -0.568905 0.000000 0.000000 0.000000 
